#N canvas 662 206 528 486 10;
#X obj 115 61 unpack 0 0;
#X obj 233 20 inlet;
#X text 280 26 event;
#X obj 233 48 sel 0;
#X obj 213 139 -;
#X obj 55 354 del;
#X msg 57 135 stop;
#X obj 117 327 moses 1;
#X msg 118 364 0;
#X obj 105 296 t b f b;
#X msg 257 296 next;
#X obj 258 336 qlist;
#X obj 335 236 inlet;
#X msg 295 108 0;
#X obj 135 263 moses 10000;
#X obj 137 238 moses 0;
#X msg 296 169 rewind \, next;
#X obj 231 82 t b b b;
#X floatatom 212 165 5 0 0 0 - - -;
#X connect 0 0 5 1;
#X connect 0 1 4 1;
#X connect 1 0 3 0;
#X connect 3 0 17 0;
#X connect 3 1 4 0;
#X connect 4 0 18 0;
#X connect 5 0 4 0;
#X connect 6 0 5 0;
#X connect 7 1 8 0;
#X connect 8 0 5 1;
#X connect 9 0 5 0;
#X connect 9 1 7 0;
#X connect 9 2 10 0;
#X connect 10 0 11 0;
#X connect 11 0 0 0;
#X connect 12 0 11 0;
#X connect 13 0 4 1;
#X connect 14 0 9 0;
#X connect 15 1 14 0;
#X connect 16 0 11 0;
#X connect 17 0 6 0;
#X connect 17 1 16 0;
#X connect 17 2 13 0;
#X connect 18 0 15 0;
